<svg width="854" height="854" viewBox="0 0 854 854" fill="none" xmlns="http://www.w3.org/2000/svg">
<path d="M380.933 119.467C380.8 119.6 376.533 120.133 371.333 120.667C350.533 122.667 318.267 130.533 298.133 138.533C249.733 157.867 210 187.867 177.067 230C160 251.733 143.733 282.267 134.133 310.8C130.8 320.667 127.867 330.133 127.467 332C127.2 333.867 126 339.6 124.8 344.8C123.733 349.867 122.267 357.067 121.733 360.8C120.4 368.8 120.267 433.2 121.6 440.667C123.733 453.467 127.067 468 129.6 476.667C131.2 481.733 132.533 486.267 132.667 486.667C133.2 489.333 136.667 499.2 138.933 504.667C143.067 514.8 157.2 543.2 159.333 546.133C160.4 547.467 163.867 552.533 166.8 557.333C179.067 576.667 205.333 605.333 224.667 620.667C228.4 623.6 240.933 635.6 252.667 647.467C264.4 659.333 279.067 672.933 285.333 677.6C325.467 708.267 372.8 727.867 422 734.267C432.667 735.6 482.533 735.6 492.667 734.267C509.2 732 531.067 726.933 543.333 722.667C547.733 721.067 552.267 719.6 553.333 719.333C555.733 718.8 574 710.8 582.667 706.667C596.133 700 615.867 687.6 628.667 677.733C644 665.867 665.6 644.667 674.8 632.667C676.533 630.4 678.267 628.4 678.8 628C680.267 626.8 696.933 602.133 700.267 596C702.133 592.667 704.8 587.867 706.267 585.333C713.467 572.4 727.733 534.667 729.867 522.667C730.133 520.8 730.8 518.4 731.2 517.333C731.6 516.267 732.267 513.067 732.667 510.133C733.067 507.333 733.6 504.667 733.867 504.133C734.4 503.333 735.6 493.067 736.8 479.333C737.333 472.667 737.333 435.867 736.8 428.667C735.2 409.733 729.067 382.267 722.133 362.667C720.133 357.2 718.4 352.133 718.267 351.333C717.467 347.2 698 310.8 691.333 300.667C676 277.6 656.133 255.333 637.333 240C633.333 236.667 626.667 230.4 622.667 226C609.867 212.133 583.467 186 578.133 182C575.2 179.733 571.333 176.667 569.467 175.2C554.667 163.067 522.533 145.6 498.667 136.667C485.067 131.6 452.933 123.333 442 122C428.933 120.533 382 118.533 380.933 119.467Z" fill="black"/>
<path d="M235.817 285.909C242.022 298.838 350.608 494.797 352.547 496.413C354.099 498.032 373.877 462.071 373.877 457.627C373.877 453.586 283.13 288.737 276.149 279.848C273.822 277.02 263.351 275 251.329 275H230L235.817 285.909Z" fill="white"/>
<path d="M312.215 283.889C316.869 293.586 389.776 425.707 391.328 427.727C392.879 429.748 412.657 391.364 412.269 386.515C412.269 384.091 398.696 358.232 382.408 329.545L352.547 277.02L330.054 275.808C307.561 274.596 307.561 274.596 312.215 283.889Z" fill="white"/>
<path d="M480.912 325.505C466.951 350.96 455.317 373.586 455.317 376.01C455.317 378.838 462.685 380.05 475.483 379.242L496.038 378.03L510.385 352.172C518.142 338.03 526.673 324.293 529 321.869C534.429 316.212 560.801 315.404 559.251 321.465C558.473 323.889 548.393 343.283 536.757 365.101L515.427 404.293H436.702L403.351 465.707L370 526.717L399.473 580.859C415.761 610.759 430.11 633.787 431.273 632.979C432.049 631.767 452.215 596.616 475.483 555L517.367 479.041L497.587 477.829C486.341 477.021 475.87 478.233 473.933 480.253C471.606 482.677 461.91 499.241 451.439 517.829C441.356 536.416 431.661 551.364 430.11 550.96C428.558 550.96 423.905 545.304 420.027 538.84L413.434 527.525L435.539 487.121L458.032 446.717L537.922 442.677L580.19 365.909C603.847 323.485 623.627 286.717 624.789 283.889C626.341 280.252 613.156 279.04 566.617 279.04H506.896L480.912 325.505Z" fill="white"/>
</svg>
